<!DOCTYPE svg PUBLIC "-//W3C//DTD SVG 1.1//EN" "http://www.w3.org/Graphics/SVG/1.1/DTD/svg11.dtd">
<!-- Uploaded to: SVG Repo, www.svgrepo.com, Transformed by: SVG Repo Mixer Tools -->
<svg height="800px" width="800px" version="1.1" id="Layer_1" xmlns="http://www.w3.org/2000/svg" xmlns:xlink="http://www.w3.org/1999/xlink" viewBox="0 0 503.467 503.467" xml:space="preserve" fill="#000000" transform="matrix(-1, 0, 0, 1, 0, 0)">
<g id="SVGRepo_bgCarrier" stroke-width="0"/>
<g id="SVGRepo_tracerCarrier" stroke-linecap="round" stroke-linejoin="round"/>
<g id="SVGRepo_iconCarrier"> <path style="fill:#FFD0A1;" d="M192.142,234.667c34.133-34.133,110.933-68.267,136.533-68.267c17.067,0,81.067,55.467,98.133,85.333 c3.413,6.827,11.947,19.627,0,29.867c-3.413,3.413-7.68,4.267-11.947,4.267c-9.387-0.853-18.773-11.093-26.453-17.067 c-15.36-11.947-51.2-42.667-59.733-42.667s-59.733,34.133-59.733,51.2c0,17.067,34.133,68.267,51.2,68.267 c21.333,0,64-29.013,76.8-44.373c0,0,7.68-7.68,17.92-7.68c5.12,0,11.093,1.707,17.067,7.68c17.067,17.067-1.707,38.4-1.707,38.4 L344.889,422.4c-17.067,17.067-25.6,59.733-25.6,76.8H174.222c-59.733-93.867-93.867-187.733-102.4-221.867 s-8.533-204.8-8.533-204.8c0-8.533,8.533-17.067,17.067-17.067c17.067,0,17.92,7.68,21.333,17.067c0,0,9.387,47.787,11.947,104.96 h0.853l25.6-147.627c0,0,0-17.067,17.067-17.067s17.92,13.653,21.333,25.6c0,0-4.267,57.173-12.8,116.907l0,0L224.569,12.8 c0,0,4.267-8.533,17.067-8.533c17.067,0,33.28,23.893,25.6,51.2L224.569,166.4C226.276,166.4,210.916,203.947,192.142,234.667"/> <path style="fill:#51565F;" d="M320.142,503.467H175.076c-1.707,0-2.56-0.853-3.413-1.707 C108.516,401.92,76.089,307.2,68.409,279.04c-8.533-34.133-8.533-198.827-8.533-205.653c0-11.093,10.24-21.333,21.333-21.333 c18.773,0,21.333,8.533,24.747,17.92l0.853,2.56c0.853,2.56,0,4.267-2.56,5.12c-2.56,0.853-4.267,0-5.12-2.56l-0.853-2.56 c-2.56-7.68-4.267-11.947-16.213-11.947c-5.973,0-12.8,6.827-12.8,12.8c0,1.707,0,170.667,8.533,203.947 c6.827,28.16,38.4,121.173,100.693,218.453h138.24c0.853-18.773,9.387-58.027,26.453-75.947l85.333-82.773 c0.853-0.853,15.36-17.92,1.707-32.427c-14.507-14.507-29.013-0.853-29.867,0c-12.8,15.36-57.173,45.227-80.213,45.227 c-19.627,0-55.467-53.76-55.467-72.533c0-20.48,53.76-55.467,64-55.467c6.827,0,22.187,11.093,51.2,34.133 c4.267,3.413,8.533,6.827,11.093,9.387c1.707,0.853,3.413,2.56,5.12,4.267c11.947,9.387,20.48,16.213,28.16,9.387 c7.68-6.827,4.267-15.36-0.853-23.893c-17.92-30.72-80.213-83.627-94.72-83.627c-24.747,0-99.84,33.28-133.12,67.413 c-6.827,6.827-7.68,22.187-7.68,22.187c0,2.56-1.707,4.267-4.267,4.267l0,0c-2.56,0-4.267-1.707-4.267-4.267 c0-0.853,0-18.773,9.387-29.013c35.84-35.84,113.493-69.12,139.947-69.12c20.48,0,84.48,58.027,101.547,87.893 c4.267,7.68,12.8,23.04-0.853,34.987c-3.413,2.56-6.827,4.267-10.24,5.12c5.12,0.853,11.093,3.413,16.213,8.533 c15.36,15.36,5.973,35.84-1.707,44.373l-85.333,82.773c-15.36,15.36-23.893,57.173-23.893,73.387 C324.409,501.76,322.702,503.467,320.142,503.467z M328.676,230.4c-8.533,0.853-55.467,33.28-55.467,46.933 c0,15.36,33.28,64,46.933,64c18.773,0,60.587-27.307,73.387-42.667c4.267-4.267,11.093-8.533,18.773-9.387 c-8.533-1.707-16.213-8.533-22.187-13.653c-1.707-1.707-3.413-2.56-4.267-3.413c-3.413-2.56-6.827-5.973-11.947-9.387 C361.102,252.587,334.649,230.4,328.676,230.4z M123.876,264.533c-0.853,0-0.853,0-1.707,0c-2.56-0.853-3.413-3.413-2.56-5.973 l102.4-247.467C222.009,10.24,227.982,0,243.342,0c8.533,0,17.067,5.12,23.04,12.8c8.533,11.947,11.093,28.16,6.827,43.52 l-42.667,110.933c-0.853,2.56-3.413,3.413-5.12,2.56c-2.56-0.853-3.413-3.413-2.56-5.12L265.529,53.76 c3.413-12.8,1.707-26.453-5.12-35.84c-4.267-5.973-10.24-9.387-16.213-9.387c-9.387,0-12.8,5.973-13.653,5.973l-102.4,247.467 C127.289,263.68,125.582,264.533,123.876,264.533z M106.809,230.4C106.809,230.4,105.956,230.4,106.809,230.4 c-3.413-0.853-4.267-2.56-4.267-5.12l34.133-196.267c0-6.827,4.267-20.48,21.333-20.48c18.773,0,22.187,14.507,24.747,24.747 c0,1.707,0.853,2.56,0.853,4.267c0.853,2.56-0.853,4.267-3.413,5.12c-2.56,0.853-4.267-0.853-5.12-3.413 c0-1.707-0.853-2.56-0.853-4.267c-2.56-11.947-5.12-17.92-16.213-17.92c-11.947,0-12.8,11.093-12.8,12.8l-34.133,197.12 C111.076,228.693,108.516,230.4,106.809,230.4z"/> </g>
</svg>