<?xml version="1.0" encoding="iso-8859-1"?>
<!-- Uploaded to: SVG Repo, www.svgrepo.com, Generator: SVG Repo Mixer Tools -->
<svg height="800px" width="800px" version="1.1" id="Layer_1" xmlns="http://www.w3.org/2000/svg" xmlns:xlink="http://www.w3.org/1999/xlink" 
	 viewBox="0 0 502.613 502.613" xml:space="preserve">
<path style="fill:#FFD0A1;" d="M157.144,259.413l-7.68-221.867c0-18.773,11.947-34.133,30.72-34.133s27.307,14.507,29.013,34.133
	l17.067,170.667c0-18.773,15.36-34.133,34.133-34.133c18.773,0,34.133,15.36,34.133,34.133v17.067
	c0-18.773,15.36-34.133,34.133-34.133s34.133,15.36,34.133,34.133v25.6c0-13.653,11.947-25.6,25.6-25.6s25.6,12.8,25.6,25.6v110.933
	c0,68.267-25.6,76.8-34.133,136.533h-204.8c-9.387-48.64-37.547-104.96-65.707-153.6c-3.413-5.973-6.827-11.947-11.093-17.92
	c-18.773-30.72-7.68-75.947,28.16-75.947C126.424,250.88,146.905,250.88,157.144,259.413L157.144,259.413z"/>
<path style="fill:#51565F;" d="M379.864,502.613h-204.8c-1.707,0-3.413-1.707-4.267-3.413c-8.533-40.96-29.867-92.16-64.853-151.893
	c-3.413-5.973-6.827-11.947-11.093-17.92c-11.947-19.627-12.8-44.373-2.56-62.293c7.68-12.8,19.627-20.48,34.133-20.48
	c2.56,0,4.267,1.707,4.267,4.267s-1.707,4.267-4.267,4.267c-15.36,0-23.04,8.533-27.307,16.213c-8.533,15.36-7.68,36.693,2.56,53.76
	c3.413,5.973,7.68,11.947,11.093,17.92c34.133,58.88,56.32,110.08,64.853,151.04h197.973c4.267-23.893,10.24-40.107,17.067-55.467
	c8.533-20.48,16.213-39.253,16.213-76.8V250.88c0-11.093-10.24-21.333-21.333-21.333s-21.333,10.24-21.333,21.333
	c0,2.56-1.707,4.267-4.267,4.267s-4.267-1.707-4.267-4.267v-25.6c0-16.213-13.653-29.867-29.867-29.867
	s-29.867,13.653-29.867,29.867c0,2.56-1.707,4.267-4.267,4.267s-4.267-1.707-4.267-4.267v-17.067
	c0-16.213-13.653-29.867-29.867-29.867S229.678,192,229.678,208.213c0,2.56-1.707,4.267-4.267,4.267s-4.267-1.707-4.267-3.413
	L204.078,38.4c-2.56-20.48-10.24-29.867-24.747-29.867c-15.36,0-26.453,11.947-26.453,29.867l8.533,238.933
	c0,2.56-1.707,4.267-4.267,4.267c-2.56,0-4.267-1.707-4.267-4.267L144.344,38.4c0-22.187,14.507-38.4,34.987-38.4
	c18.773,0,30.72,13.653,33.28,37.547l15.36,150.187c6.827-10.24,18.773-17.067,31.573-17.067c18.773,0,34.987,13.653,37.547,32.427
	c6.827-9.387,17.92-15.36,30.72-15.36c21.333,0,38.4,17.067,38.4,38.4v5.12c5.12-5.973,12.8-9.387,21.333-9.387
	c15.36,0,29.867,14.507,29.867,29.867v110.933c0,39.253-8.533,59.733-17.067,80.213c-6.827,15.36-13.653,31.573-17.067,56.32
	C384.131,500.906,381.571,502.613,379.864,502.613z"/>
</svg>